<?xml version="1.0" standalone="no"?>
<!DOCTYPE svg PUBLIC "-//W3C//DTD SVG 20010904//EN"
 "http://www.w3.org/TR/2001/REC-SVG-20010904/DTD/svg10.dtd">
<svg version="1.0" xmlns="http://www.w3.org/2000/svg"
 width="1919.000000pt" height="306.000000pt" viewBox="0 0 1919.000000 306.000000"
 preserveAspectRatio="xMidYMid meet">

<g transform="translate(0.000000,306.000000) scale(0.100000,-0.100000)"
fill="#5f1305" stroke="none">
<path d="M9550 2966 c-14 -8 -36 -34 -50 -58 -22 -38 -25 -55 -25 -145 0 -64
-4 -99 -10 -95 -5 3 -29 18 -53 34 -97 66 -183 84 -255 55 -68 -29 -66 -37 37
-121 116 -94 225 -209 287 -302 59 -87 82 -107 119 -107 37 0 60 20 116 104
61 93 160 196 281 296 113 93 116 100 46 130 -72 29 -158 11 -255 -55 -24 -16
-47 -31 -53 -34 -6 -4 -10 31 -10 95 0 90 -3 107 -25 145 -38 67 -94 88 -150
58z"/>
<path d="M903 2844 c-78 -39 -94 -127 -40 -227 41 -78 181 -225 285 -300 401
-289 1063 -406 1769 -312 423 55 1077 211 2008 477 247 71 358 92 560 109 382
31 732 -26 920 -150 51 -34 155 -149 155 -173 0 -5 -32 -8 -71 -8 -111 0 -157
-32 -174 -121 -14 -75 34 -167 102 -195 42 -18 107 -18 142 0 42 22 89 81 102
128 6 24 9 75 7 113 -14 217 -238 419 -598 539 -374 124 -795 122 -1336 -9
-82 -20 -286 -76 -454 -125 -362 -105 -515 -146 -750 -199 -401 -91 -786 -158
-1069 -186 -177 -17 -537 -20 -661 -5 -188 24 -357 77 -470 148 -64 41 -196
165 -216 204 -14 26 -13 30 23 69 46 51 49 98 10 158 -48 72 -166 103 -244 65z"/>
<path d="M18122 2839 c-55 -27 -97 -88 -97 -139 0 -29 9 -47 38 -79 36 -39 37
-43 23 -69 -20 -39 -152 -163 -218 -205 -108 -70 -280 -123 -468 -147 -124
-15 -484 -12 -661 5 -283 28 -668 95 -1069 186 -235 53 -388 94 -750 199 -509
149 -753 200 -1048 220 -486 34 -957 -103 -1203 -351 -89 -89 -131 -175 -137
-280 -5 -90 8 -136 51 -185 39 -45 76 -64 127 -64 138 0 222 151 152 272 -24
41 -69 58 -152 58 -42 0 -70 4 -68 10 12 35 99 136 144 166 197 130 536 186
929 155 202 -17 313 -38 560 -109 729 -208 1439 -385 1773 -442 654 -111 1184
-83 1638 85 217 81 390 191 533 340 139 146 180 250 131 330 -40 65 -145 85
-228 44z"/>
<path d="M3030 2824 c-132 -17 -238 -43 -442 -108 -459 -147 -698 -212 -831
-226 -93 -11 -228 -4 -337 16 l-35 6 48 -35 c111 -81 233 -111 422 -104 171 7
335 40 637 129 464 135 558 156 769 165 147 6 260 -5 357 -37 l57 -18 -54 49
c-60 54 -178 119 -261 143 -55 16 -261 29 -330 20z"/>
<path d="M15915 2820 c-110 -15 -253 -84 -341 -164 l-49 -45 45 16 c77 26 191
42 300 43 210 0 360 -29 765 -147 363 -107 526 -142 705 -149 194 -9 315 21
427 103 l48 35 -35 -6 c-110 -20 -244 -27 -336 -16 -132 14 -380 81 -814 220
-267 85 -277 88 -408 105 -115 16 -212 17 -307 5z"/>
<path d="M7274 2751 c-88 -22 -188 -145 -234 -285 -57 -176 -9 -370 121 -490
99 -92 190 -126 334 -126 90 0 161 17 247 61 32 16 60 29 63 29 3 0 5 -55 5
-122 0 -138 13 -199 61 -296 40 -83 133 -181 201 -214 143 -69 275 -65 618 23
143 37 222 52 295 56 124 7 243 -14 312 -54 81 -47 170 -149 149 -171 -3 -3
-59 7 -124 22 -272 65 -436 37 -526 -92 -24 -34 -31 -56 -34 -106 -5 -77 18
-127 75 -166 43 -29 121 -32 171 -6 49 25 62 61 62 170 l0 95 56 7 c109 13
226 -15 264 -64 24 -29 26 -88 6 -135 -32 -78 -172 -158 -301 -173 -30 -4 -55
-11 -55 -17 0 -17 67 -73 114 -96 26 -12 78 -31 115 -43 l69 -21 17 -66 c33
-125 78 -206 159 -287 40 -41 79 -74 86 -74 7 0 45 33 85 73 79 79 129 168
160 288 l17 66 87 27 c114 37 211 100 211 137 0 3 -25 9 -56 13 -126 15 -269
97 -300 173 -20 47 -18 106 6 135 38 49 155 77 264 64 l56 -7 0 -95 c0 -107
13 -145 58 -167 92 -47 191 -15 239 77 25 48 14 146 -23 198 -90 129 -254 157
-526 92 -65 -15 -121 -25 -124 -22 -21 22 68 124 149 171 69 40 188 61 312 54
73 -4 152 -19 295 -56 343 -88 475 -92 618 -23 68 33 161 131 201 214 48 97
61 158 61 296 0 67 2 122 5 122 3 0 31 -13 63 -29 86 -44 157 -61 247 -61 143
0 235 34 333 124 99 92 144 200 144 339 -2 167 -90 345 -210 419 -54 33 -142
30 -210 -7 -112 -61 -131 -178 -43 -258 66 -59 151 -62 228 -7 l43 30 26 -53
c47 -92 35 -233 -24 -290 -39 -38 -96 -58 -176 -64 -60 -4 -82 -1 -140 21
-137 52 -268 143 -436 302 -132 125 -160 147 -290 222 -184 107 -341 144 -495
117 -195 -34 -358 -141 -424 -278 -24 -50 -38 -148 -27 -191 17 -67 115 -135
215 -150 42 -6 43 -6 37 16 -3 13 -11 67 -17 120 -13 112 -5 159 42 232 100
158 371 141 549 -35 54 -53 120 -149 120 -175 0 -7 -43 -6 -137 4 -200 20
-266 7 -400 -78 l-47 -30 40 0 c49 0 121 -35 148 -73 17 -23 21 -44 21 -100 0
-91 -36 -168 -112 -244 -62 -61 -109 -79 -243 -93 -186 -19 -319 -80 -439
-200 -65 -64 -83 -90 -126 -182 -27 -59 -52 -107 -55 -107 -3 0 -27 48 -55
107 -43 91 -61 118 -125 182 -119 120 -254 181 -440 200 -134 14 -181 32 -244
93 -75 75 -111 153 -111 244 0 56 4 77 21 100 27 38 99 73 148 73 l40 0 -47
30 c-134 85 -200 98 -399 78 -95 -10 -138 -11 -138 -4 0 26 66 122 120 175
178 176 450 193 550 35 44 -70 54 -128 41 -237 -6 -51 -14 -102 -17 -115 -6
-22 -5 -22 37 -16 69 10 136 43 174 85 42 47 49 73 42 150 -13 145 -144 287
-324 351 -238 84 -436 43 -733 -151 -30 -20 -107 -85 -170 -145 -177 -168
-307 -259 -444 -311 -77 -29 -137 -31 -221 -9 -107 27 -149 90 -148 219 0 55
5 81 27 122 l26 53 43 -30 c77 -55 162 -52 228 7 89 80 68 203 -44 257 -60 28
-118 38 -163 27z"/>
<path d="M143 2650 c-60 -12 -101 -36 -123 -73 -49 -80 -1 -166 91 -167 39 0
56 6 100 40 72 54 106 64 203 57 175 -12 369 -90 671 -271 59 -35 -80 85 -166
144 -258 177 -617 301 -776 270z"/>
<path d="M18955 2653 c-210 -26 -467 -131 -674 -273 -86 -59 -225 -179 -166
-144 302 181 496 259 671 271 97 7 131 -3 203 -57 45 -34 61 -40 101 -40 68 0
100 33 100 105 0 63 -22 96 -77 118 -44 17 -114 26 -158 20z"/>
<path d="M5546 2370 c-182 -21 -451 -89 -702 -179 -215 -76 -317 -103 -477
-126 -117 -17 -326 -20 -376 -5 -19 5 -37 8 -39 6 -2 -3 20 -20 50 -40 113
-76 279 -107 462 -88 190 21 254 36 819 201 357 105 672 125 868 57 62 -21 68
-22 59 -6 -17 31 -101 99 -154 124 -103 49 -341 75 -510 56z"/>
<path d="M13385 2371 c-106 -10 -178 -28 -243 -59 -56 -27 -135 -91 -152 -122
-9 -16 -3 -15 59 6 196 68 511 48 868 -57 556 -162 632 -181 820 -201 182 -19
348 13 461 88 30 20 52 37 50 40 -2 2 -20 -1 -39 -6 -50 -15 -259 -12 -378 5
-124 18 -268 53 -387 96 -492 174 -797 235 -1059 210z"/>
<path d="M9505 2159 c-35 -10 -65 -37 -152 -136 -68 -77 -123 -110 -200 -121
l-47 -7 29 -29 c110 -105 277 -107 405 -6 49 39 75 38 128 -5 122 -96 290 -91
397 11 l29 29 -47 7 c-77 11 -132 44 -200 121 -89 101 -117 126 -157 137 -42
12 -144 12 -185 -1z"/>
<path d="M9514 1786 c-64 -28 -61 -86 10 -198 30 -47 57 -96 61 -107 3 -12 10
-21 15 -21 5 0 12 9 15 21 4 11 31 60 61 107 55 87 66 131 44 172 -20 38 -142
54 -206 26z"/>
</g>
</svg>
