<?xml version="1.0" standalone="no"?>
<!DOCTYPE svg PUBLIC "-//W3C//DTD SVG 20010904//EN"
 "http://www.w3.org/TR/2001/REC-SVG-20010904/DTD/svg10.dtd">
<svg version="1.0" xmlns="http://www.w3.org/2000/svg"
 width="533.000000pt" height="422.000000pt" viewBox="0 0 533.000000 422.000000"
 preserveAspectRatio="xMidYMid meet">

<g transform="translate(0.000000,422.000000) scale(0.100000,-0.100000)"
fill="#FFFFFF" stroke="none">
<path d="M1896 3862 c-3 -5 -86 -9 -185 -8 -99 1 -175 -1 -170 -5 6 -3 -9 -6
-33 -7 -38 0 -103 -17 -163 -41 -66 -27 -95 -42 -95 -48 0 -8 -29 -22 -73 -37
-10 -3 -15 -10 -12 -16 3 -5 2 -10 -4 -10 -5 0 -22 -11 -37 -25 -15 -14 -31
-25 -36 -25 -5 0 -6 -5 -3 -11 4 -6 -2 -13 -14 -16 -12 -3 -21 -9 -21 -14 0
-4 -11 -20 -25 -35 -13 -14 -30 -39 -37 -55 -7 -16 -16 -29 -20 -29 -3 0 -9
-13 -13 -30 -4 -16 -11 -30 -16 -30 -5 0 -8 -3 -8 -7 1 -5 1 -10 -1 -13 -1 -3
-4 -16 -6 -30 -2 -13 -8 -27 -13 -30 -4 -3 -9 -12 -9 -20 -7 -76 -13 -115 -20
-119 -12 -9 -13 -2101 -1 -2101 6 0 9 -6 7 -12 -5 -27 14 -128 24 -128 6 0 8
-8 6 -18 -3 -10 1 -23 8 -30 7 -7 11 -19 8 -27 -4 -8 -1 -15 5 -15 6 0 20 -22
32 -50 12 -27 26 -50 32 -50 6 0 7 -3 4 -6 -4 -4 1 -14 11 -23 9 -9 18 -21 19
-27 3 -15 120 -134 132 -134 5 0 14 -7 21 -15 18 -22 219 -120 250 -122 14 -1
51 -4 82 -5 31 -2 60 -7 64 -10 4 -4 15 -3 26 3 11 6 27 7 36 3 9 -4 22 -6 27
-5 6 2 53 5 105 8 52 3 107 6 123 6 15 1 27 5 27 10 0 4 15 7 34 7 39 0 141
30 212 62 27 12 52 21 57 20 4 -1 7 5 7 13 0 8 7 15 14 15 8 0 27 11 42 25 14
13 35 27 45 30 11 4 19 10 19 15 0 5 9 12 20 15 11 3 20 11 20 16 0 5 17 25
37 44 20 19 33 35 28 35 -5 0 0 7 11 15 10 8 15 15 9 15 -5 0 1 7 13 16 12 8
20 19 17 24 -3 4 2 11 11 14 8 3 12 10 9 16 -3 5 -3 10 2 10 9 0 58 101 55
113 -1 4 2 7 7 7 5 0 11 9 14 20 3 11 0 20 -6 20 -9 0 -9 2 -1 8 6 4 13 14 16
22 3 9 9 3 19 -18 7 -18 18 -32 22 -32 4 0 13 -13 18 -30 6 -16 15 -30 20 -30
5 0 9 -7 9 -16 0 -8 6 -22 13 -29 29 -33 37 -45 31 -45 -3 0 4 -9 17 -20 13
-10 20 -19 16 -20 -4 0 10 -19 32 -43 22 -23 54 -59 72 -80 17 -20 35 -37 40
-37 5 0 25 -15 45 -32 71 -66 83 -76 88 -70 3 3 14 -3 23 -14 21 -22 103 -64
127 -64 9 0 16 -5 16 -11 0 -6 7 -9 15 -5 8 3 15 2 15 -3 0 -5 19 -12 43 -15
61 -11 400 -16 412 -7 6 5 34 11 64 14 30 4 58 12 62 18 4 6 11 9 16 6 12 -7
63 14 63 26 0 4 20 17 45 28 25 11 45 24 45 29 0 5 11 12 24 16 14 3 40 23 58
45 18 21 38 39 43 39 6 0 21 16 34 35 13 19 28 35 33 35 5 0 6 5 3 10 -3 6 1
13 9 16 9 3 14 10 11 14 -3 5 6 21 20 36 13 14 22 30 19 35 -3 5 -1 9 4 9 11
0 25 37 23 62 -1 9 3 19 9 23 5 3 10 17 10 31 0 13 5 24 10 24 6 0 8 11 6 25
-3 14 -1 25 3 25 5 0 7 494 6 1098 -2 1119 -5 1189 -42 1230 -7 7 -13 22 -13
33 0 11 -7 27 -15 35 -8 9 -15 24 -15 35 0 10 -5 19 -11 19 -5 0 -8 4 -5 8 3
5 -4 15 -15 22 -10 8 -19 19 -19 25 0 6 -8 18 -17 27 -30 28 -42 46 -36 52 4
3 1 6 -6 6 -6 0 -22 9 -34 20 -12 10 -37 33 -56 50 -19 16 -40 30 -47 30 -8 0
-14 4 -14 8 0 12 -148 84 -159 78 -5 -4 -12 -2 -16 4 -3 5 -15 10 -26 10 -11
0 -18 3 -16 8 3 4 -9 8 -26 9 -18 1 -54 4 -82 7 -27 3 -430 6 -895 7 -501 1
-850 5 -857 11 -7 5 -13 5 -17 0z m670 -135 c3 -3 18 -2 34 3 17 5 32 4 38 -2
6 -6 17 -6 32 2 12 6 29 8 38 4 9 -4 22 -6 27 -5 6 2 70 2 143 1 72 0 140 -1
150 0 9 0 58 0 107 0 150 0 209 0 225 0 8 0 58 0 111 -1 53 -1 101 1 107 5 6
3 13 2 17 -4 3 -5 16 -8 28 -5 12 3 48 -1 81 -9 32 -9 61 -15 64 -14 9 1 38
-9 77 -27 17 -8 42 -19 58 -24 15 -6 27 -15 27 -21 0 -5 6 -10 13 -10 7 0 23
-10 34 -22 12 -13 44 -45 72 -73 28 -27 51 -55 51 -62 0 -7 4 -13 8 -13 5 0
19 -24 32 -52 12 -29 29 -60 35 -68 11 -13 24 -57 30 -100 1 -8 5 -22 9 -30 6
-14 1 -2106 -5 -2162 -2 -16 -7 -28 -11 -28 -4 0 -8 -11 -8 -24 0 -14 -4 -27
-9 -31 -5 -3 -12 -19 -16 -35 -4 -17 -11 -30 -16 -30 -5 0 -9 -7 -9 -15 0 -8
-9 -24 -21 -36 -11 -11 -18 -23 -16 -26 3 -2 -9 -18 -26 -35 -18 -17 -31 -34
-30 -39 2 -5 -1 -9 -6 -9 -5 0 -28 -18 -51 -40 -23 -22 -44 -40 -47 -40 -2 0
-23 -13 -46 -28 -46 -30 -138 -62 -181 -62 -15 0 -25 -4 -22 -9 8 -12 -353 -6
-366 7 -6 6 -17 8 -24 5 -8 -3 -14 0 -14 7 0 7 -8 9 -20 5 -11 -3 -20 -2 -20
3 0 5 -10 13 -22 17 -13 4 -25 8 -28 10 -51 22 -73 34 -65 35 6 0 -10 13 -35
29 -38 24 -177 151 -165 151 2 0 -6 11 -18 24 -32 35 -43 49 -57 77 -7 13 -19
28 -27 32 -17 10 -54 83 -46 91 4 3 2 6 -4 6 -8 0 -37 56 -59 115 -19 53 -32
113 -26 119 3 4 1 6 -5 6 -6 0 -9 60 -10 155 0 85 4 155 9 155 4 0 7 12 6 28
-1 15 2 38 7 52 5 14 7 37 6 53 -1 15 2 27 6 27 5 0 9 16 8 35 -1 19 3 36 10
39 8 2 11 15 8 30 -3 14 -1 26 4 26 5 0 10 14 11 32 2 17 7 36 11 42 5 6 12
35 16 65 4 30 10 64 14 75 14 42 -1 256 -18 256 -4 0 -6 20 -5 45 1 25 -2 45
-6 45 -4 0 -6 9 -3 21 5 18 11 19 47 13 22 -3 43 -10 44 -15 2 -5 10 -9 18 -9
8 0 17 -6 20 -14 3 -8 16 -17 29 -20 12 -3 25 -14 29 -23 3 -10 10 -25 15 -33
39 -59 60 -150 62 -265 1 -35 -12 -119 -26 -170 -25 -90 -27 -107 -36 -235 0
-8 2 -24 4 -35 3 -11 6 -29 6 -41 1 -17 7 -20 39 -18 41 2 82 22 82 40 0 7 7
15 16 18 8 3 13 10 9 15 -3 6 4 15 15 21 11 6 18 15 15 21 -4 5 0 12 9 15 8 3
12 12 9 20 -3 8 -1 14 4 14 5 0 10 6 11 13 6 59 16 107 22 107 3 0 7 29 7 65
0 37 -4 65 -9 65 -6 0 -5 7 2 15 7 8 8 15 2 15 -5 0 -13 30 -17 68 -4 37 -11
69 -15 72 -7 4 -20 68 -23 108 0 6 -4 12 -8 12 -7 0 -19 27 -19 43 1 4 -6 15
-15 23 -8 9 -13 19 -10 24 3 4 -2 13 -10 20 -8 7 -12 16 -9 21 3 5 1 9 -4 9
-6 0 -20 25 -33 55 -12 30 -26 55 -30 55 -3 0 -18 26 -33 58 -27 59 -67 129
-84 148 -6 6 -20 31 -32 55 -13 24 -26 46 -30 49 -4 3 -23 34 -41 68 -19 35
-42 78 -51 95 -9 18 -25 40 -35 50 -15 16 -16 19 -3 27 13 8 13 10 -2 10 -27
0 -48 -11 -48 -26 0 -8 -4 -14 -9 -14 -5 0 -26 -34 -48 -76 -21 -42 -42 -84
-48 -95 -5 -10 -15 -19 -22 -19 -7 0 -13 -5 -13 -11 0 -14 -50 -85 -89 -127
-17 -19 -29 -38 -26 -43 4 -5 -1 -9 -9 -9 -9 0 -16 -7 -16 -15 0 -8 -4 -15
-10 -15 -5 0 -9 -3 -8 -7 2 -8 -51 -96 -72 -121 -6 -7 -8 -17 -5 -22 3 -6 2
-10 -2 -10 -5 0 -17 -20 -28 -45 -11 -25 -23 -45 -26 -45 -3 0 -12 -19 -19
-42 -7 -24 -17 -47 -22 -53 -4 -5 -8 -17 -8 -27 0 -10 -5 -18 -11 -18 -6 0 -9
-7 -5 -15 3 -8 1 -15 -5 -15 -6 0 -9 -6 -6 -12 2 -7 -1 -24 -8 -38 -7 -14 -15
-44 -19 -68 -3 -24 -8 -48 -12 -54 -11 -18 -6 -172 6 -203 7 -16 12 -38 12
-47 0 -10 3 -18 7 -18 8 0 25 -57 22 -72 0 -5 3 -8 7 -8 4 0 14 -15 20 -34 13
-35 40 -58 81 -69 23 -6 53 13 50 30 -1 4 1 16 6 26 4 11 5 74 1 140 -9 154
-8 147 -18 147 -15 0 -9 245 7 276 11 22 12 30 2 36 -9 6 -9 8 1 8 6 0 12 6
12 14 0 7 9 25 20 38 10 14 16 28 13 32 -3 3 1 6 10 6 9 0 17 6 17 13 1 17 70
67 103 74 15 3 27 9 27 14 0 5 14 9 30 9 27 0 30 -3 30 -32 0 -28 -9 -63 -38
-148 -8 -23 -8 -300 -1 -300 4 0 10 -24 13 -52 3 -29 8 -66 10 -83 3 -16 8
-52 11 -80 3 -27 9 -51 14 -53 4 -1 6 -16 3 -32 -2 -16 -1 -38 4 -47 11 -24
13 -322 2 -329 -4 -3 -8 -17 -8 -31 0 -32 -41 -163 -51 -163 -4 0 -10 -13 -14
-30 -4 -16 -11 -30 -17 -30 -6 0 -8 -3 -5 -6 4 -4 -2 -19 -12 -33 -10 -14 -21
-36 -25 -47 -4 -12 -15 -29 -26 -39 -11 -10 -20 -24 -20 -32 0 -7 -7 -16 -15
-19 -8 -4 -13 -10 -10 -14 3 -5 -9 -22 -26 -39 -17 -17 -27 -31 -22 -31 4 0 0
-5 -10 -11 -9 -6 -15 -14 -12 -20 4 -5 -1 -9 -9 -9 -8 0 -17 -9 -21 -19 -3
-11 -14 -23 -25 -26 -10 -3 -21 -12 -24 -20 -3 -8 -12 -15 -20 -15 -8 0 -21
-8 -28 -18 -26 -34 -251 -112 -348 -119 -98 -8 -370 -10 -370 -3 0 4 -18 10
-39 14 -22 3 -62 17 -89 31 -27 14 -53 25 -56 25 -12 0 -55 48 -49 54 4 3 -3
6 -14 6 -23 0 -89 60 -98 90 -4 11 -10 20 -14 20 -5 0 -14 14 -21 30 -7 17
-17 30 -22 30 -5 0 -6 5 -3 10 3 6 1 10 -5 10 -6 0 -8 4 -5 10 3 5 1 10 -4 10
-6 0 -11 9 -11 20 0 12 -7 35 -16 51 -19 38 -26 64 -28 109 -1 19 -6 43 -10
53 -5 11 -4 23 2 29 7 7 8 17 3 27 -12 21 -11 33 1 49 6 7 6 12 1 12 -11 0
-11 50 0 68 5 6 5 12 0 12 -12 0 -10 54 2 62 7 5 6 8 -1 8 -9 0 -13 123 -4
140 1 3 1 10 -1 15 -7 26 -3 125 6 125 7 0 7 3 0 8 -14 10 -15 65 -1 74 7 5 7
8 1 8 -14 0 -15 53 -1 62 7 5 7 8 1 8 -15 0 -17 60 -2 60 7 0 8 3 2 8 -14 10
-15 56 -1 64 6 5 7 8 1 8 -6 0 -10 16 -10 35 1 19 -3 35 -9 35 -7 0 -7 3 1 8
7 4 10 16 9 27 -2 11 1 26 7 33 5 7 6 12 0 12 -10 0 -11 136 0 146 3 4 2 14
-2 23 -12 21 -11 33 1 49 6 7 7 12 1 12 -8 0 -10 43 -3 60 1 3 1 10 0 15 -9
41 -8 50 3 57 6 4 7 8 2 8 -12 0 -13 49 -2 68 5 6 4 12 0 12 -11 0 -10 50 0
68 5 6 4 12 0 12 -11 0 -11 41 0 58 5 6 4 12 0 12 -12 0 -10 53 2 62 7 5 7 8
0 8 -6 0 -10 14 -10 30 -1 17 3 30 7 30 4 0 8 5 8 11 0 5 -4 8 -8 5 -10 -6 -9
45 1 62 5 6 4 12 -1 12 -11 0 -10 40 1 58 5 6 4 12 0 12 -5 0 -8 26 -6 58 6
138 18 212 36 212 8 0 7 3 -2 9 -9 6 -10 11 -2 15 6 4 9 12 6 17 -4 5 -2 9 3
9 9 0 25 37 23 53 -1 4 3 7 9 7 5 0 10 5 10 11 0 7 8 18 18 25 9 7 12 14 6 14
-34 1 179 200 213 200 7 0 85 34 116 51 9 5 39 12 65 16 26 3 53 9 61 13 15 8
999 5 1007 -3z"/>
<path d="M1430 3488 c-30 -10 -62 -27 -70 -37 -8 -10 -25 -22 -37 -26 -13 -3
-22 -9 -20 -13 1 -4 -10 -21 -25 -37 -15 -16 -25 -32 -22 -37 3 -4 1 -8 -4 -8
-5 0 -13 -10 -17 -22 -4 -13 -10 -30 -13 -38 -8 -18 -9 -2298 -1 -2322 3 -10
8 -21 12 -24 4 -4 7 -16 7 -26 0 -10 5 -18 12 -18 6 0 9 -3 5 -6 -3 -4 -1 -12
6 -20 7 -7 25 -29 41 -49 16 -20 53 -47 85 -62 31 -14 66 -30 78 -36 27 -12
263 -16 263 -4 0 10 50 57 61 57 5 0 9 7 9 15 0 8 4 15 9 15 15 0 42 146 39
210 -1 33 -6 60 -10 60 -5 0 -7 3 -6 8 4 18 -15 152 -22 152 -4 0 -7 6 -7 12
2 24 -14 113 -23 129 -5 9 -12 44 -16 78 -3 33 -11 61 -15 61 -5 0 -8 3 -7 8
1 4 -2 43 -7 87 -4 44 -8 95 -8 113 0 17 -3 32 -7 32 -3 0 -5 28 -4 63 1 34 3
62 4 62 1 0 3 16 4 35 4 40 19 172 21 180 1 3 4 12 7 20 3 8 13 42 24 75 31
102 152 316 190 338 8 5 12 12 9 17 -3 5 17 31 45 59 27 27 50 54 50 60 0 5 4
11 9 13 16 5 90 71 166 144 40 40 81 77 91 83 11 6 13 11 7 11 -14 0 -2 13 60
68 21 17 34 32 30 32 -4 0 0 5 10 11 9 5 17 16 17 23 0 7 12 18 26 24 14 7 23
16 20 21 -3 5 1 12 10 15 9 4 15 9 12 12 -8 7 44 64 59 64 7 0 12 4 10 8 -3
13 55 58 86 66 15 3 27 2 27 -3 0 -5 8 -7 18 -4 23 5 145 -124 145 -153 0 -5
8 -15 17 -21 10 -7 20 -24 24 -37 3 -14 15 -28 26 -31 11 -3 20 -9 20 -13 0
-11 151 -180 218 -244 23 -23 42 -44 42 -48 0 -4 25 -33 55 -65 30 -32 53 -61
50 -63 -2 -2 6 -14 18 -27 43 -44 65 -73 60 -79 -4 -3 -2 -6 4 -6 5 0 20 -22
33 -50 13 -27 27 -50 31 -50 6 0 20 -37 18 -49 0 -2 3 -7 8 -10 16 -12 33 -50
27 -64 -3 -8 2 -17 11 -21 10 -3 15 -12 11 -21 -3 -8 0 -17 5 -21 6 -3 9 -15
6 -25 -3 -11 -1 -19 4 -19 5 0 9 -13 9 -30 0 -16 4 -30 8 -30 5 0 9 -6 10 -12
8 -105 16 -165 23 -174 9 -12 10 -83 0 -99 -3 -5 -6 -24 -7 -42 -1 -18 -5 -54
-10 -80 -8 -52 -8 -51 -17 -73 -6 -17 -8 -31 -10 -89 -1 -22 -6 -39 -12 -38
-5 1 -9 -5 -10 -13 -2 -38 -18 -90 -27 -90 -6 0 -8 -7 -4 -15 3 -8 1 -15 -4
-15 -6 0 -10 -11 -10 -24 0 -14 -4 -27 -9 -31 -5 -3 -13 -30 -16 -60 -4 -30
-12 -55 -17 -55 -5 0 -8 -10 -7 -22 1 -13 -1 -30 -4 -38 -12 -32 -20 -76 -20
-107 -1 -18 -5 -33 -10 -33 -5 0 -6 -19 -3 -42 3 -24 6 -53 6 -65 0 -11 9 -45
19 -75 10 -29 19 -57 20 -63 1 -12 258 -19 349 -10 56 6 69 12 126 58 36 29
67 62 70 75 4 12 14 31 24 42 9 12 17 24 17 28 0 4 3 12 6 17 19 30 22 182 23
1150 1 972 -3 1191 -24 1205 -4 3 -10 17 -14 33 -12 48 -90 129 -163 169 -48
26 -191 42 -245 27 -17 -5 -28 -3 -31 4 -3 9 -13 9 -40 0 -20 -6 -37 -7 -39
-2 -2 5 -17 5 -36 0 -17 -5 -32 -6 -32 -2 0 10 -341 8 -357 -2 -7 -5 -13 -5
-13 0 0 4 -359 9 -798 9 -752 1 -801 0 -852 -18z"/>
</g>
</svg>
